<svg width="26" height="15" viewBox="0 0 26 15" fill="none" xmlns="http://www.w3.org/2000/svg">
<path d="M13.7682 5.16093C12.7991 2.40896 10.1755 0.436523 7.09091 0.436523C3.17909 0.436523 0 3.61369 0 7.52314C0 11.4326 3.17909 14.6098 7.09091 14.6098C10.1755 14.6098 12.7991 12.6373 13.7682 9.88534H18.9091V14.6098H23.6364V9.88534H26V5.16093H13.7682ZM7.09091 9.88534C5.79091 9.88534 4.72727 8.82235 4.72727 7.52314C4.72727 6.22393 5.79091 5.16093 7.09091 5.16093C8.39091 5.16093 9.45455 6.22393 9.45455 7.52314C9.45455 8.82235 8.39091 9.88534 7.09091 9.88534Z" fill="white"/>
</svg>
